<svg xmlns="http://www.w3.org/2000/svg" width="24" height="24" viewBox="0 0 24 24" fill="white">
  <path d="M19.14 12.94c.04-.3.06-.61.06-.94s-.02-.64-.06-.94l2.03-1.58a.5.5 0 0 0 .12-.63l-1.92-3.32a.5.5 0 0 0-.6-.22l-2.39.96a6.96 6.96 0 0 0-1.62-.94l-.36-2.54a.5.5 0 0 0-.5-.42h-3.84a.5.5 0 0 0-.5.42l-.36 2.54a6.96 6.96 0 0 0-1.62.94l-2.39-.96a.5.5 0 0 0-.6.22L2.71 9.49a.5.5 0 0 0 .12.63l2.03 1.58c-.04.3-.06.61-.06.94s.02.64.06.94l-2.03 1.58a.5.5 0 0 0-.12.63l1.92 3.32a.5.5 0 0 0 .6.22l2.39-.96c.49.39 1.03.72 1.62.94l.36 2.54a.5.5 0 0 0 .5.42h3.84a.5.5 0 0 0 .5-.42l.36-2.54c.59-.22 1.13-.55 1.62-.94l2.39.96a.5.5 0 0 0 .6-.22l1.92-3.32a.5.5 0 0 0-.12-.63l-2.03-1.58ZM12 15.5a3.5 3.5 0 1 1 0-7 3.5 3.5 0 0 1 0 7Z"></path>
</svg>
